<mxfile host="app.diagrams.net" modified="2024-04-03T14:23:11.432Z" agent="Mozilla/5.0 (Macintosh; Intel Mac OS X 10_15_7) AppleWebKit/537.36 (KHTML, like Gecko) Chrome/122.0.0.0 Safari/537.36" etag="Nc1uNpYJ815YRkm8Qsey" version="24.2.2" type="device">
  <diagram name="Page-1" id="cgq-Z70VVdh74J4bgwmG">
    <mxGraphModel dx="782" dy="506" grid="0" gridSize="10" guides="1" tooltips="1" connect="1" arrows="1" fold="1" page="1" pageScale="1" pageWidth="850" pageHeight="1100" math="0" shadow="0">
      <root>
        <mxCell id="0" />
        <mxCell id="1" parent="0" />
        <mxCell id="e-kMsQ-ebPBBxJpTvWtn-9" value="" style="whiteSpace=wrap;html=1;shape=mxgraph.basic.document" vertex="1" parent="1">
          <mxGeometry x="191.5" y="120" width="57" height="70" as="geometry" />
        </mxCell>
        <mxCell id="e-kMsQ-ebPBBxJpTvWtn-11" style="edgeStyle=orthogonalEdgeStyle;rounded=0;orthogonalLoop=1;jettySize=auto;html=1;exitX=1;exitY=0.5;exitDx=0;exitDy=0;entryX=0;entryY=0.5;entryDx=0;entryDy=0;" edge="1" parent="1" source="e-kMsQ-ebPBBxJpTvWtn-6" target="e-kMsQ-ebPBBxJpTvWtn-10">
          <mxGeometry relative="1" as="geometry" />
        </mxCell>
        <mxCell id="e-kMsQ-ebPBBxJpTvWtn-6" value="" style="rounded=0;whiteSpace=wrap;html=1;fillColor=none;dashed=1;dashPattern=8 8;" vertex="1" parent="1">
          <mxGeometry x="170" y="80" width="230" height="145" as="geometry" />
        </mxCell>
        <mxCell id="e-kMsQ-ebPBBxJpTvWtn-8" value="" style="rounded=0;whiteSpace=wrap;html=1;fillColor=default;" vertex="1" parent="1">
          <mxGeometry x="170" y="80" width="100" height="30" as="geometry" />
        </mxCell>
        <mxCell id="e-kMsQ-ebPBBxJpTvWtn-1" value="MDX&lt;div&gt;Content&lt;/div&gt;" style="whiteSpace=wrap;html=1;shape=mxgraph.basic.document" vertex="1" parent="1">
          <mxGeometry x="200" y="125" width="60" height="70" as="geometry" />
        </mxCell>
        <mxCell id="e-kMsQ-ebPBBxJpTvWtn-4" value="" style="shape=image;verticalLabelPosition=bottom;labelBackgroundColor=default;verticalAlign=top;aspect=fixed;imageAspect=0;image=https://www.vectorlogo.zone/logos/docusaurus/docusaurus-ar21.png;" vertex="1" parent="1">
          <mxGeometry x="270" y="130" width="120" height="60" as="geometry" />
        </mxCell>
        <mxCell id="e-kMsQ-ebPBBxJpTvWtn-5" value="" style="group" vertex="1" connectable="0" parent="1">
          <mxGeometry x="170" y="80" width="90" height="30" as="geometry" />
        </mxCell>
        <mxCell id="e-kMsQ-ebPBBxJpTvWtn-2" value="" style="shape=image;html=1;verticalAlign=top;verticalLabelPosition=bottom;labelBackgroundColor=#ffffff;imageAspect=0;aspect=fixed;image=https://cdn4.iconfinder.com/data/icons/ionicons/512/icon-social-github-128.png" vertex="1" parent="e-kMsQ-ebPBBxJpTvWtn-5">
          <mxGeometry x="10" y="5" width="20" height="20" as="geometry" />
        </mxCell>
        <mxCell id="e-kMsQ-ebPBBxJpTvWtn-3" value="Repository" style="text;html=1;align=center;verticalAlign=middle;whiteSpace=wrap;rounded=0;" vertex="1" parent="e-kMsQ-ebPBBxJpTvWtn-5">
          <mxGeometry x="36" y="3.75" width="54" height="22.5" as="geometry" />
        </mxCell>
        <mxCell id="e-kMsQ-ebPBBxJpTvWtn-10" value="" style="shape=image;verticalLabelPosition=bottom;labelBackgroundColor=default;verticalAlign=top;aspect=fixed;imageAspect=0;image=https://images.ctfassets.net/4zfc07om50my/7HSVAFZJJDt71qngGcB81k/4c12ca2cca60283f0f329b358f642bf4/44036562.png;" vertex="1" parent="1">
          <mxGeometry x="440" y="126.25" width="47.5" height="47.5" as="geometry" />
        </mxCell>
        <mxCell id="e-kMsQ-ebPBBxJpTvWtn-12" value="GitHub Actions" style="text;html=1;align=center;verticalAlign=middle;whiteSpace=wrap;rounded=0;" vertex="1" parent="1">
          <mxGeometry x="440" y="177.5" width="60" height="30" as="geometry" />
        </mxCell>
        <mxCell id="e-kMsQ-ebPBBxJpTvWtn-15" value="" style="rounded=0;whiteSpace=wrap;html=1;fillColor=none;dashed=1;dashPattern=8 8;" vertex="1" parent="1">
          <mxGeometry x="520" y="85" width="230" height="140" as="geometry" />
        </mxCell>
        <mxCell id="e-kMsQ-ebPBBxJpTvWtn-20" value="" style="group" vertex="1" connectable="0" parent="1">
          <mxGeometry x="560" y="100" width="160.95" height="120" as="geometry" />
        </mxCell>
        <mxCell id="e-kMsQ-ebPBBxJpTvWtn-18" value="" style="shape=image;verticalLabelPosition=bottom;labelBackgroundColor=default;verticalAlign=top;aspect=fixed;imageAspect=0;image=https://st.depositphotos.com/1319590/4342/v/450/depositphotos_43423247-stock-illustration-flat-vector-browser-templates.jpg;clipPath=inset(16.48% 42.67% 14.77% 4%);" vertex="1" parent="e-kMsQ-ebPBBxJpTvWtn-20">
          <mxGeometry width="158.6769230769231" height="120" as="geometry" />
        </mxCell>
        <mxCell id="e-kMsQ-ebPBBxJpTvWtn-19" value="" style="shape=image;verticalLabelPosition=bottom;labelBackgroundColor=default;verticalAlign=top;aspect=fixed;imageAspect=0;image=data:image/png,iVBORw0KGgoAAAANSUhEUgAAAVIAAACVCAMAAAA9kYJlAAAA8FBMVEX/////99B5zLVzwqz08vJuybD29vb//vv/9s3/+Nj7+/t1y7P39/fLy8v/+dHw8PDk5OTR0dHr6+vFxcUAAACys7S+vr7b29uxsrPZ2dnh4eG4ubrOzs6oqar/5m//5Fr/876Zmpyz4dSjpabK6eCWl5mDz7qFh4mk28uBg4WOkJK7uqi549fQzbTv6cfX07iZ18Xc8erY7+iqq5/t+PWMybgjKC1xc3WeoJjJxrD07cm03cCOyrlIS04cIihjZWhVWFvc68jH5MQAAA05PUGr277n78tWwqUJExszNzxQU1f/4kqc1rv/64z/6H3/+uObG3DHAAAgAElEQVR4nO19CWPbuJJmxU/mzMCEcJm4sTMUJcui5TPuKHZe2rm6t7t3Zvf//5stULIjJz4TJW37uWxJBAiC5McC6isABGDtWVYsMP/Z2Jh/nuUr+cd9JB/QQbqxNpgeDaeDtWdQv5ZvgnRjMFhb395a35oeZGW9yOyy2t6qxA/neVx/Jd9wjd8G6fbxdHA0REy3N9YyrhsZv431wcF6t5E/a1uDwcYitJC1tUs/W8ONReLu0vPPz6pKDg421jYW58yyvbXVBedfi/vJsrW9thxamyda21pEbBwcbM1vaesiDiHd2tq6d8FfXx9Mp+uD4cH2xjoZbB8Pt4bb69PpcHu6NZ2u5X3D9YPj4fH6cLq+jakODgZT/N0a4sZwDQYHw4PB8cFwY7i9NRhuZXSP1of4iA4PfwqmG9ODwcFgAz9b8+DWVr6SrcE2xgzyvrXt7e4RD7amS6HtrbUB3sHW1vagi0C12TrIyQ82Buvnua394xcEFf//+csvW/j3yy///OddCv50bQOzw2zwesjW8fbWEAaHB8Pj4fbx8QAOjgfH6weH/xumw8MBQRSnA4wdHB4ewfToeBu2MOXgaOt4OD3eJsPhxtr6dLg+ODpYGw5/BqJ4/etTBOtga7qAdH1tGxHZRqQG21P8whK2gDRHrU0XoW1U58FguoGQDuZlCzdQWbYQ0PUBZtpFZjwR1X8glAjnL//8xz+74C2QTjdQGaeok1gOtjNKhwjp0cHw8Hj7eHBwvD6A7Y2MK0I6PT4YHB4NyDpsHR4OB8PBEUJKpmT78OD4aIBHbh9trGGS7e3h4OCnaSkCiAXq4ByqwQHCiTqKXwdT3J4eDM/3DC6FDvCmUUsPts+1tHsEa9sbGfrBwRzSXPARRAQUJf/epS6drq9vDIcDRHEDf7e2Ec3pxhAfF17ncGu6sQHrWJiHaxi3Pj1aG04PcDeqNW4c5LKO8K0dbU/XhrmcdfVxftz58zMQXVvbuKjlPwc7QVizOdhAcOdq2MnB4HMo6/e5AehiujBurG+vzyPvWo1ehnR7is9lC8v/wefrWVilzk4db29cUNfza7+47OXkGxd26cKE/a1ycQHXk5cvr/HzIYvfb4IUs0FtHOZyf7Ws/93Q/J3ybZCura09AJV6qHJvSNefZcUCvWdZscCzPMuzPMuzPMuzPMuzPMuzPMuTF/J3X8DTk+LvvoA7irll/1w1iL9rfv7H6dLPg/Re9zDb/MTBLUVsXpnq469psflW5W95kSwuJeu27VsA1V7E/Tp/RraG9uMrdZ9Lu1VWB2mTIsImGBc5hACGhJsZyC4C0k0HfyHVO1TL5p0CZ/FgaRVCWmhgSQDzQlMAyhDRGfR+1YQCwYQMuI3sD5AKlOVsU7EiBAK0sBK38fI+tqAneFUa8w/ikwGXJDRjfApSrgyELCuDlCsmq6AnVbI01VqPoNIw6enUhDGva9/M7pGZ20TFOXtnYaJ/FXKzHiOkf6jyY3ir3cd3arNHNvFZbSIUaSb/ALYJf1G32YzYr7Bp6jOb1GaSuhm/g1efWo3bAHXalAjpq/HsLzg7aze5+hQ+FglztquCYCFzSFEVeKdZuQiU0t18zJUiLdStktZ7S4tELctRlQmjBA3MaNW7j5aC+PSKVGNUxvptaPAXNt9aqD41ZzPzCmCcQn5Am3jx4Uy+AvYRzsS4wTO++pOC/mi7ioKl8Z/wygHpaoPa6rd0wv/AXWyzhE98Nmv+1AipPNu8cw18J5lDats0CrqxddIWNczWVXsvBLLopHiSgSfhSxEqixEsCKsiCKEsSffM8MwipOktmy0gbT9hdcCNdFgn8rfvcmXyCiuAyUj+CvIC0o+TM8Ry9i5DukkFQsqhnEOa4O3ZWGZIe6jif/JZ7X2Zct73KkC3yxxSRalWYAWWWWqNpiFS+l3ZKv1dxzezEZbMV6l6mz5WWPBnCNFsApt1rdwn3P/Xq5yKbraTXwuyWb/72BX8eow1wNvGNi1C2prNdPYK/kAN3Bzh16hB4zWBT5NFwffxjzRhqRVn9avwXff6pTxMElXoSubnAgpraJBVzDWSgjLossj62dZdMqZfYRmXlRRz8+TQVJVKZgskLcN/AbFEpc61EMeazSG0em6efAG8otC2aMxuI2j3vfjVZvdTpGixMpwL+/RdePzxx2qNfSePEVKiH3R312OE9IHLHNJYrMDZJy5TsZwPxS8iC55/MKpEvZIeN0lns8on3rAwh1TLFChT6rt0lkSrgvZBq0pBUFpqpaoKKhcpBFn5pGTjG2u1+wEV2AOSBdXXWlCtvxNSKiLa06CUFQozNEorQUEJJYigwVbUBxo8hdFKrvzByjKIq3UirhX/Lc7ZI5KHa56QJyGdhHPjfk8jzy7ndHkH+yrJXNwVlXxZfhHBFo1qX8ZfyMOEtIlVEsmg16O1qZlCnzZy6XuUsWzvmCKyLMBxISX6AI6S6BNIYA4LgCImAm2ACclYzAmEEaA8JsfjeEsg1hBJZAkUI+hIsJ4CKRmFWhnHlaiACxKJ8HgeMNqLwhgsWVwkHlmPBgZORpnbwqTzdQFfVpcPE1JrQxUspARFg05QrRV7R2aTxHJLQaJ10VRcFBWoUcMCNGk0qhwkCI0lJNhaB1ZjjZ2oiqlmITRVFRXEtikrzED4ZjSysQmJNLqBxqYiBLSrYAtVi+AM1LxtK5VUnarWh3Y0kiMONT41XWN6fBTKNYDXZ1t8LnjWyxc/hxS9PlTo4lzvCSmKebkoWJfgQsmv1fZl+X6O5Gu0cdZpC17pdoQgikbXwoKqBBQzF6rUOBiJ0ShAldu5FK8hhTAeQahspWjVIsKjVnFroUK83IzBpMXtegI8tUG5usH4WDvMMgTRTjQBW+ZnoRO4cUWj5xOhmfWq8bF1Y3CTSjV1ilWNnjJCGbRuaF2Xyl4JKY2GGyei4Jo7aoFSRxVF40ypAq28oK6sOHX8xsaQxnqCZS9iMs0VEek7ydKXVRaGR0QAXhJZTiGbds51SdfMTS52LEmi6VI+xOSmAkJagJpdSk26v8Vpyee47p98zhkPJfNUX55rwUspDVH5ZKiyFdY+mluXgqKEcl06BJnZGERldITrRQqopQ6KnUnkUqrqGihWLOSKW7hTqbi6grsyu++VxamwOAEp0axmA1fOd+Q/c/G0cH9Bbu4uC21RURfwEQShgvCCr/pqH4Ws1DzJp+1p3lEepsWXS32WX6i6uKjOv89jwAK3lMF1eck5eVXmHqd8mJC2vBJOS+arqnLeClfECbcyNyWPYcw1OrwT0NaJiluPtKA1CQ22V3RkkIXiARC5S9IZJD4slZjGByXABYtmymNG0TUKbETLXTTUOqhtWSkheoJNeGI5j6pnDUx0HQ3mH2AirdQuUIdnpDd3qV5A+kWZXVTcf1NJrkwT7KQFXSQdNAsVi6oONOXW+VEFGrlhyH9ja0lbcRYTcqnkJ8nisVoVCZJN0ASVGX6VkJozivQReZniEEdBhlQoCJPGJaU0EoVEalFZO0ZOhcwTkjIJmTFYw8PISohWS5UCvOWtrZi9uRutg5TFgEZdRBmpEM4IbsAqJpXXirt5v/zd5PB4/nMePsIwOYbjzynmAYyD46PjLw+/EAWNq3ojEKWKNBZUJ4+3zKuIhL6ieHMKakCKh0YQaEWgpg0DvAcVBTQY0MiskL+k2knQyTQeQ5WziDCqrW0QYJUQvaB0QtIHyE+Q8lVc1cip0EmCNMpHG6gUo7TKAwmqUMWEpUIFx3o3t/vMtXQUhVMKfTpd5x5N7SA3ImnLgxDqHl0RA7J9PDwcDo+OjoZTODw6nh6S4fFweHh0OMg7tmGIO4fH06Oc6u753k8E3lRzJ6fk2yTd3N6w8J5K9JdMwaGHnjMUhQdTePSnDSvKcI+hA8fT4XAwhPyu8hQOYIgIHk+nZDjIsE4HOeJogP9kMDw8PJ5+z309XFmteRoeH6FqDo+P8RsGGB6gkuI/Rh8eDo/hCEv84fERGRLU1uH1Bf9Ry4+z+Mc3m7anS2EfJomidm4TKSyNWrjwbwOYBn30853dt8G9Ydm3K+QXR4H5Sf0zDxNSCw1rRC0nTWWprUklxqIZA2tM20TkMGiZkTQhmwzIStskjEZLnBrVNCa14Ecd5m2bkweDHEqMVW42siBrM0pVugeJub8sxkThM0QCa4iPjIMnngrpC+MKznwBQnJmJEMDxr5vWM+dxUKtk9BIkpAyJpd0qoRsICQdqzxsbQQkZEihqjU0BOllCJmHVoVqPaRxARYPtiwoqxvtYdY0LTKoBqpGicxYf+TFLxr3MhVEGioq5FIgFGgqA4WWUoUlyupIASlrxM/NuSnf8YuLVBq3cvM7LLolGBhFgN06WNlYZrQPknuOfBm5PjLlimLp5tIz60EmaakBZ7O+Rov80fvSGu+JSkhYQx7UgweXZiw8QapOwWFMcOC0Gblkyx+pGnNIZcEKykFwwfHio2RCOtRTzp0kCpg03HnpPLttmGTFGpnQlRQBRTqFZJxop9FDcYklShtQsZEjnqjCorqCSkd+2dpYhuVLJF+3hWEd+4O7E2+9rXvV6TxoLFqsognhHIPJTnFQTgWZ0FHJPiRaixE+L6qxHDzRtr/VmicJRZm7WLBwd61JDFWcdP8lKQsCBSHAaU5AyifLon6+xX+yUJ7LwyRRj1oWFl9ivTcfblIgJWa5zYEYx7Gcur8D9H97bPI1pF4CF1Zn/qQpJKGi06UU2lRI4/4GSP/z//zXvz8m+Y+vIQ28x4VDRkKd5cB59IojQXFROHcfymE9LfHp0KIoSg8F05qAZFyRQsaSE0m7l43Qm0B/AnyJLI1cyRD/13/+14vHJP/va0iX5OuRQvcQ6jVvFEmmscFQjlqvSVCeIpfSLGmOFIpSGkxlg1ZFJbVTV/ZMPy1Iv0to1LpyTlDlBXqNTAejqFMx+pDHWgIqbSSV1gh3EEIU6Jlf+TbHM6RXCs+9AVfUGrH32auV15SJZ0hXLh2k/f7FJffPf/ovPm/1z8P9S7e3FNXl8Pmgi83+ctIXn5NeJ/1rA48L0v7uye45BCf904zHKf69eIEfjHjR38ftnZzgtIOq/2JvL/+cZnxO53jvLA7q/nPqvZymf7q39wXCOek8cNr/gMe/n0P1pvt+vwi9eJ9TvvnwvjvizRK210G6cGt6bGGj5i74oluMSPIT/Z4O0pOXe/v7Oy9fnrzYOX29//plf2f35GT/9euT3dcvT/Zf7rw8ebm7s7/Tf7mzj4na3b3d3Z2d072Xe68xiAe+Pjk52Xm9s7O7c9o/2Xm5n3dgDi9f757gYfu7mMN+v99iTvs5CvPZ3TvZ2e1/ePPhw28f8Pv9m98+9D/89v63D+8x5s3vLzD2ff/N77/9nnd+ePP+zYf/fnP64QZIqTBCyRgF6Mo7boSWgjuF7Cpy0IW4QzMHW/QOnoflfLjbUo15t8cyhxQV5/XezsnOHqJ5irf/ErHFIO5AsE72djIEL3f7O3s7LzHZuL+/t7O/9+Ikh/ov91/vn+BT2T/N8GGKnT4euHuyj/E7p7uYfjenPu3j7r3XrzFjPASfDar/G8TxwweELmOG6GHEh99x6z2C/QIBRHDf/IaxOfpDf+smLaUiIr9JWuCWSD73OyfKaqUos2irlb8d0sSSFExE771RaKBckOAkVdIbK6kUeeBx5OzWoQFdXYqls/+yv7ff393r7/X39/unuy92sei+QEU8xcj9093T05dY3l+c7iOUWKL397pE+1i6Mbx/2t9D8HYxBlNjDnunp3sv8Kj+7immPD19sbvf5byHR++ezs+ENcLvv784fZ8/ffx+f/o7Sv9D/3cs7e8R0f4HjOx2YPWAe7ryf23BJwRpOMtaRUhRYlHHAMMin403kewOjJXT6K2CxqSoiqZUEJGXBkIDF1GGkEcz+CS0v61V/dziZ1TPbRD+9hf1XVdn5j+sFTsL1D+vFPvzdJ/tyMKG9S8s0MKs9Rdp5zHzc/Q/G6mlLC7O+tk+LVm83/s/2DxRH7HuENI44/P4WZUY9UwZrEWQrBokpRq117nbZr64M4m60VD/DJmf/2fx0tx4/ZVm361Few7p3w3X3eWRkCisIbtC9xiAfSSQ9l+foN1AmvQIMH0skCINRVpz8hjU9DpIPe1emci1Xbl4i2Lex0g6T13Kq15euyxiPqPVxVg/6rtO59y0ff6ihwdphFA3Z3UO6d7+a2SSDx/T6yDNr+M0plJVgOSp0okmZPlaaKUUpCqoqxviliVBwzQ6DIJSFUqT38kl1CsMm8S0ow0BDGhf3DLAcuHjz5nNI5DrIDWCS+eEcJwgN5fGC9NjQkRHnQMauTO3cv0yUNUg/q5BrtSCkDrPNMJoYIEKG/CpFRSJa8Fuadd+Qi1Ri5nryEWxv6dbL0ovPTElY74gqNOmyvO4OEY8l9Iz4EQWeaTFbVX4U4G0x4pOzn96sttm32jBvmf+kScDaaG8NrkZnnrtTMFodMro4m8gBU8G0rKWygZNVUL/ESs8i/UfV8+Q3i63FfxOHOv1zuuBnw3o04GUXCP3gELzPAUP6YbT5ZdR8zRxvV7uWCbdDg4iT3x563yhjwzSq/rxVyWaW17n3s+UKpWbTHPjHnJUrZ2VdR5moTQtqNW3UNz/+b///h+PSX6gQypUsE3Mw7w7XspVEEpH9BF8wj15MKTiVKuErH+l531Q8uMqym407XXIhSc8fu9hNps8almCNL+Td2ksw3yai+XUuUX57rOC/4vKEqQ6UE0D2BASpYEHF0OVekhTWZ4w1qsATeCjKNsnXGhXIcvNJnlWGAXecBepUQ6o4457R4nx1CshgebBTlzd2q/35Suxy+Gn/zzuVJfeeTxk4oEZ4qhEiSDR4jPwTKieNIGJwgRwlD/V1x7OZcUkChFLXaez1jKw+WBIXdDgXGQhFDSPB1CrXRngwcmKO52doto7L6Jx0KD3ZLkSXDmD9QZVAhSRisYnzEmz/MBO58wMnngZv1KeeenKZQ5pD/LEW/AFwmTeqVdcSvpTRHRjo5cZ8KeLXVCveNL2VcviJR0HWOFFHgV3knNmjJRooIV3CutFcM7kl0p/XilWjajPePtJpAlvzgyMx2dSQwujM/VHraQ5a6CejH/a5dxP5pByCpRVSvsQI3VFwm8aIQonhA4WENjQIEP6aVelGlv7mUrwBxczeKVa+U6M4G0cZ3VtzSuY+V/J7IFq6xxSU5YFR2A5KVgAKUrGZAlFWRJe8l7uhePEk+962eRegpBqliH9E2gLr0IF7xxCqhNgTOtewUggtA90AuSHaZ7yTFBswv6MfwGc/ZXIp9kMPs3O4O1fvbNJY+xfuAmjJw+p+jwOd3lELiskkeexerULrDxMWRmkJPmGWc48sySxRGIi6H8GXoRGNSRJH5IUkwTWOMYfqH6tRlYHaQVNG1KVat2gLWtqSJNa2Tz3rrVdeFRDqAJpbPXlVL9PS1YHaVvp5IpGW8dSI0IrQm04uvO1S7QSTYIGtTgJPfJt+gHz7z4cWYI0r4b0xRCRTFPIUiP0TTZfFnkpyjw2D70GD43Mo/QW3gJulfhX4B5+/2FBj0yWIBW8qQSXgXoqNHLSlEfyaa0CKpm2Kk97eQ/tetrrkNwkl0buUSZKpZRkVBglfH5thweH0Zp7LyQ3T7wNaTXydV3KyPLStF2x/4FLy14tBMqllwHJ5xqHXLwqdPmdIfbl9pVV1HKv2eVbwuTz+WvIlfO6d1Jejr+2EnygVH+mKxZ7EQjlBaMQU+FBkh4Tlc0rsUoKVcAfUlAkvoQlG8FgEWOkFCYJKBr8wnRF1E7yHgXHgTk5gZL2MKKMLEU81ERMgfuIwFwTE4Q7jxxPgmaikLQE2q1R08rGJdtowmvDeCFYUQowDUQQ8oqFllYJacEX+Z/PlSyBL54ru6eeW44OVIpglaJVCCxNZnldBxvQN00Ta2zQEwrIeHvJClnoRuqW+sayEJBuOKgSC+hxWRrIbIaJxgyaSDUglcMINlKqyvyjBjlSVUoSGaDWbd1QHWKTQp7LD2kfSXkZVRg3GqN8Q6Dxk1mSqarbCi+lblo2/lpZVwgpwfty0RcS7ZjyzlCuIVmpBThNeWDBU63LILW/fcGnxptg+QTEpKgnQammQYWa1Q45LeL0LugqIB68pSrUIwmjvGyGR2ySO/OVjNAmqGoHfBxcbZIKcQR1MgoakWBk6kRrayHMIh6pha2QP9c1tbJNVKXG17qCUOOZdFUFqGTjRzS45FlMjbOgbYh5VjEtVRPrHwkpFtDMD2QLSFDR9VSVBmVGVOEdVEj2XcjL4lDL9B07n0ie5NmS+VVepneLRStE19J7HizyymihWwp70fiLNSN+pfmLwV1cbx7fHcHzorHkPLu8PEbqklWdLWlrdgmdcr5a0vw62DwvdlWNehWkiwu8t01SlAtURxk8V144bTwESgJRhfYyyJH3XqKOlv4eXOzGsdRXzfd8xQ1deyNfHU+Wor+ZPS9Wy0XCpPL7DQ6/kTuxKD0NxUqnqCb/Kky1g7SoIuKohPAWvyHwJEWI9N7LOj9LlkU5ya85MF/macrRd/RgpCz4Tcvm/GBZdCCcvxa0IJSFnFNmXubhGqzQPZaJ6vKMxOfUc7mtq7yiwvN5nt7LKYvzXgvzVXeBWyRbDLK/uTvhYfJS8g4qK60LLk/+6sdCJmIr8BN4S5KkY2a5hSbJPJluzWa6YJZVRiUiRFQOLWPIy2WZSU8UzmF5G8u8GkdeLKOAqIyVapJX4dCVogJTWh8EiFpoM5GVh4mofEIClXqgFNROiczOqMpDP6xG1pAPub7XaLWQXjxnUIuHLy/Vx11Akls7jWytrGlY0qEBY5Gapvx6IPg6r5ORLEVWaPMyGG4yiY2tpGCJ5ibFFDDlpCEY9kIlDa5FZJiidVAIkM5TFisEJAWNXsI4BZIzSTZUAhqJXK0qdYMsjSVAukY06BaQNI3ypMgTpEsOM4UAVjTh+sb01UKqkNeg2Xd5dgihQ6E1dcpXolvyNWrRgKicSFrf0o0VQI+R8mma3+lLplYicYWujGyUT87WyBRRW4xtCm9llVsl8C6dRh6vKqq7FTAkImqRsSqumKtjxfPiLjR5GDUUVGqhwAv02qLSeswNiWhC7yIg58R7KGjiVJEINV4xksCQPLX5AozAx6SoM+n6IaGrhTSwqHRZaWSoSivZUkrxuUcVqbRUlViMAu6k6rZ3SCFP3i5uwf3zTT2sToLrIC07IYR0v3fNzaP/zKTHWtyj1SD4KcCRqiyQ5BqWBwX3sIqX7G7LGj5SWYK0zNM1Gug0iCAFQCA8Z0VZFizPxpml91lx7jEW+mm3OH8lyy+P624UdAg05TeSaQp5aKOwlhZ5lUfcbZRCN904rqNW9cMqbg9Hllv1TUS+j4bFU0kKYXRMwuSlrwWWY6MNF5w6GpnBBIZGekWdYT0tFvOXdoV85SLOX5i6whVLi+HZ17m7X1fNMtdGi/ZVNHwXCbAWRweSUB/TRdzV571qVvxr6lLSvfxYLt5+vHPTHDWX5i+941Ffi01m4hqtg2qojUh/hAwJMw4c2anVLqkxMnU9qkER2yQ00q2DFiYyqMyw0PqPmh6FLqRCY5CB2jgjwBvXqNSYFpmTr5GcYv6QzwQ1MNUgOW3wkDRhmY6p2tpcCWo8NW9mIPIiFGOe24aQnfoaw6G+YhKxFQ/ZFZfmL/1myQyT5tWGWyUTz4OxWlrFhuS12kA2dV6TAtNYh7yc5mauvMIbtJUMTcoL3qkoHJL50KBDgIQzU0+oqrxQR8Cci4qGWqHnraHKq8Xobm2ONlPNZoyPzCrG2rGcdSsrAEsjJLIiAarshOJ5Aj5CPOM4lCF9tVQC/PD5S79RGotG0hof0JkJPgSOKkg1sSI7i0L3LLPALR+HvDyhpsxidJnwWSLrxacpLZd4BEYL5dBZAqsMeDUCktDvMqXhBrMIvsKCjzUd+md4tPYSOZ5GCx0r4kAyQXyslAcbDclTsQVk2RRPlMkrRwfNE++qKyqgh+mQflWcrp6lz13ljy9Er/zOTDjH72bD/DAhfdRyNaQLs7QwT/9ivPJ7ZXm0iUNSz3oirzLSAeoFn9t7QRg6RUaQEiThjGBNdfWaOt18peee0flksvMftvhcTP98t/JBlrd65xldzvZy0nOecb6n11uKWJyU/EjvbenGogh5HDR+Q6EyZ8EIUdtUEoG+ehmQ+ecWHyW0NV1T19cSlKQ+L7XEMY+aUNPzJA+wptFpShQVEgJjXAgmrGCqp65p6WeO5YkrWISYF0vipGRFDHzEwanG5cW7a00F52iFSeHyfP0SLbnIprs1Ls+ZxEwiAtDvc1WFpk70BFrpQkdeoD/ouPCYIXisoiXrRdKssiAuQcqd59I4/Ean1AuvvTA+OlEQnvu3qZEaeERcvCNGXDm1mcqQcxUpIq6TkFQLiGXUDiNkAxpvunFe5d00qqJi13TsjXoJST3SQa1HNlAN9l0IFkYNRD+iajyGaJUUk4pVI9+OWk9zs12h8gpxQjR1D2pSJWNdlWSlkWs6DFqohZ6Mra3bSusGjf+o5mE2aZDzrhDRa4rf8iwnS0Q/+/U3vq6oKCCiHD2ugIljyZELIp4e1dapQhmkJEg/HOdcOCOVLK9pKWhgNFI+5K5kq82sBzOHtNEjtTTBepU8cnIdx62mKcUkE8wk1NS3Hhkkt5mkjrxNITbjoCrkqnl+BWS5DcLrta0i6npjMRLpVW0SVKNVLqa3DKn86vubxc+vsfxmbrpU26W4GI56UZWW+T0C6M17gQmaTzbq9hRLLxr18v+is7o87x0u5vnm4TpgF7eef8qVjhD5vBk0RSSy44M69ZBGgN/+2sW3WJsfxmOWp9emIlD0RbC61PTbBtWeK6X4V26lujSpUX7cZDG70Tflhh4dmicaaZL/uuMmV1ch/vUAAAArSURBVOs9WamUlgkJTv2U2+1vltVCyooemgsGhD3p0fg3y7OPv3JZBaT/H6eYpMnpPpiQAAAAAElFTkSuQmCC;clipPath=inset(0% 19% 2.27% 0%);" vertex="1" parent="e-kMsQ-ebPBBxJpTvWtn-20">
          <mxGeometry y="19.20923076923077" width="153.68307692307695" height="81.58153846153846" as="geometry" />
        </mxCell>
        <mxCell id="e-kMsQ-ebPBBxJpTvWtn-25" value="" style="rounded=1;whiteSpace=wrap;html=1;strokeColor=none;" vertex="1" parent="e-kMsQ-ebPBBxJpTvWtn-20">
          <mxGeometry x="40" y="-20" width="70" height="10" as="geometry" />
        </mxCell>
        <mxCell id="e-kMsQ-ebPBBxJpTvWtn-14" value="" style="shape=image;verticalLabelPosition=bottom;labelBackgroundColor=default;verticalAlign=top;aspect=fixed;imageAspect=0;image=https://miro.medium.com/v2/resize:fit:1400/1*_M3PH26KMfxZ2hBpC2I3_A.jpeg;clipPath=inset(21.6% 32.33% 20.41% 31.33%);" vertex="1" parent="1">
          <mxGeometry x="607.1999999999999" y="50.010000000000005" width="55.6" height="49.99" as="geometry" />
        </mxCell>
        <mxCell id="e-kMsQ-ebPBBxJpTvWtn-22" style="edgeStyle=orthogonalEdgeStyle;rounded=0;orthogonalLoop=1;jettySize=auto;html=1;exitX=1;exitY=0.5;exitDx=0;exitDy=0;entryX=-0.002;entryY=0.471;entryDx=0;entryDy=0;entryPerimeter=0;" edge="1" parent="1" source="e-kMsQ-ebPBBxJpTvWtn-10" target="e-kMsQ-ebPBBxJpTvWtn-15">
          <mxGeometry relative="1" as="geometry" />
        </mxCell>
        <mxCell id="e-kMsQ-ebPBBxJpTvWtn-23" value="🚀" style="text;whiteSpace=wrap;" vertex="1" parent="1">
          <mxGeometry x="460" y="205" width="20" height="20" as="geometry" />
        </mxCell>
      </root>
    </mxGraphModel>
  </diagram>
</mxfile>
